<?xml version="1.0" encoding="utf-8"?>
<!-- Generator: Adobe Illustrator 19.2.1, SVG Export Plug-In . SVG Version: 6.00 Build 0)  -->
<svg version="1.1" id="layer" xmlns="http://www.w3.org/2000/svg" xmlns:xlink="http://www.w3.org/1999/xlink" x="0px" y="0px"
	 viewBox="0 0 652 652" style="enable-background:new 0 0 652 652;" xml:space="preserve">
<style type="text/css">
	.st0{fill:#005CB9;}
	.st1{fill:#FFFFFF;}
</style>
<g>
	<path class="st0" d="M607.5,243.3L448.8,84.7c-18.3-18.3-47.9-18.3-66.2,0l-69.1,69.1l-69.1-69.1c-18.3-18.3-48-18.3-66.2,0
		L19.4,243.3c-18.3,18.3-18.3,48,0,66.3l158.7,158.7c18.3,18.3,47.9,18.3,66.2,0l69.1-69.1l69.1,69.1c18.3,18.3,48,18.3,66.2,0
		l158.7-158.7C625.8,291.3,625.8,261.6,607.5,243.3"/>
	<path class="st1" d="M112.5,279.8c1.3,2.2,2,4.9,2,8.1c0,2.5-0.4,4.9-1.2,7.1c-0.8,2.2-2.3,4.1-4.3,5.8c-2,1.7-4.7,3-8,4
		c-3.4,1-7.5,1.5-12.6,1.5c-3.2,0-5.9-0.2-8-0.6c-2.1-0.4-3.7-1-5-1.8c-1.2-0.8-2.1-1.8-2.5-3c-0.5-1.2-0.7-2.7-0.7-4.3
		c0-0.5,0-1.2,0.1-2.1c0.1-0.9,0.1-2.1,0.3-3.8c0.1-1.6,0.3-3.8,0.5-6.4c0.2-2.6,0.4-5.8,0.8-9.8c0.4-4.9,0.7-8.8,0.9-11.6
		c0.1-1.4,0.2-2.7,0.3-3.8c0.1-6.7-2.1-9.4-4-9.5c-2-0.2-1.6-3.1-1.6-3.1l17.5,0.1c1.6-0.1,3-0.1,4.3-0.1c1.5,0,2.9,0,4.3,0.1h0.1h0
		c2.4,0.2,4.4,0.5,6.3,0.9c3,0.7,5.4,1.6,7.3,2.9c1.9,1.3,3.2,2.8,4.1,4.7c0.9,1.9,1.3,4,1.3,6.3c0,1.3-0.1,2.7-0.4,4.1
		c-0.3,1.4-0.7,2.7-1.4,4c-0.7,1.2-1.6,2.4-2.7,3.3c-1.1,1-2.5,1.7-4.2,2.1C109,275.9,111.2,277.5,112.5,279.8"/>
	<path class="st1" d="M152.3,299.3c-0.1,1.7-0.6,3-1.3,4c-0.8,1-2.4,1.5-4.9,1.5h-15.6c-3.1,0-5.3-0.6-6.6-1.8c-1.3-1.2-2-2.9-2-5.2
		c0-1.1,0.1-3,0.3-5.6c0.2-2.7,0.4-5.7,0.7-9.1c0.3-3.4,0.5-7,0.8-10.7c0.3-3.8,0.6-7.3,0.8-10.7c0.1-1.4,0.2-2.8,0.3-4
		c-0.2-5.6-2.2-7.9-4-8c-2-0.2-1.6-3.1-1.6-3.1h7.5h4.5h1.5c0,0,0.6,0,1.4,0.2c1.6,0.3,2.7,0.8,3.5,1.5c1.1,1.2,1.7,2.9,1.7,5.2
		c0,0.3,0,0.5,0,0.8c0,0.2-0.1,0.5-0.1,0.7l-2.7,38.4h14.8c0.3,0,0.6,0.1,0.9,0.3c0.3,0.2,0.4,0.5,0.4,0.9L152.3,299.3z"/>
	<path class="st1" d="M204.5,256.4c-0.1,2-0.2,4.2-0.3,6.8c-0.1,2.5-0.3,5.1-0.4,7.8c-0.2,2.7-0.4,5-0.6,7c-0.2,1.7-0.4,3.5-0.8,5.5
		c-0.3,2-0.8,4.1-1.5,6.1c-0.7,2.1-1.6,4-2.7,6c-1.1,1.9-2.7,3.6-4.5,5.1c-1.8,1.5-4,2.7-6.6,3.6c-2.5,0.9-5.6,1.4-9,1.4
		c-3.6,0-6.6-0.5-9.1-1.5c-2.5-1-4.5-2.4-6.2-4.2c-1.6-1.8-2.8-3.9-3.5-6.2c-0.7-2.4-1-4.8-1-7.5c0-1.2,0-2.8,0.1-4.9
		c0.2-2,0.3-4.3,0.5-6.7c0.2-2.4,0.4-4.9,0.6-7.5c0.2-2.6,0.4-5.1,0.6-7.4c0-0.5,0.1-1,0.1-1.5c-0.1-6-2.1-8.4-4-8.6
		c-2-0.2-1.6-3.1-1.6-3.1h7.7h4.5h1.2c0,0,0.4,0,1,0.1c2.1,0.3,3.7,0.9,4.6,2c1.1,1.4,1.7,3.5,1.7,6.3c0,0.2-0.1,0.9-0.1,2.2
		c-0.1,1.3-0.2,2.8-0.3,4.7c-0.2,1.9-0.3,3.9-0.4,6.1c-0.1,2.2-0.3,4.3-0.4,6.2c-0.2,2-0.3,3.7-0.4,5.2c-0.1,1.5-0.1,2.5-0.1,2.9
		c0,0.9,0,2,0.1,3.2c0.1,1.2,0.3,2.4,0.7,3.5c0.3,1.1,0.9,2,1.7,2.8c0.8,0.7,1.9,1.1,3.4,1.1c1.9,0,3.4-0.6,4.6-1.9
		c1.2-1.2,2.1-2.8,2.7-4.5c0.6-1.8,1.1-3.5,1.3-5.3c0.3-1.8,0.4-3.3,0.5-4.4c0.2-2.8,0.5-5.6,0.7-8.6c0.3-2.9,0.5-5.8,0.7-8.3
		c0.2-2.6,0.4-4.8,0.4-6.8c0.1-1.9,0.2-3.2,0.2-3.9c0-1.1,0.1-1.8,0.3-2.1c0.1-0.3,0.5-0.5,1-0.5h4.5c1.9,0,3.3,0.1,4.4,0.5
		c1,0.3,1.9,0.8,2.4,1.3c0.6,0.6,0.9,1.2,1,1.9c0.1,0.7,0.2,1.4,0.2,2.2C204.6,253.1,204.6,254.4,204.5,256.4"/>
	<path class="st1" d="M246.7,252.4c-0.1,1.6-0.5,3-1.3,4c-0.8,1-2.4,1.5-4.9,1.5h-11.3l-0.8,11.6h11.7c0.3,0,0.6,0.1,0.9,0.2
		c0.3,0.2,0.4,0.5,0.4,0.9l-0.4,4.8c-0.1,1.6-0.5,2.9-1.3,4c-0.8,1-2.4,1.5-4.9,1.5h-7.1l-0.9,12.2h18.1c0.3,0,0.7,0.1,0.9,0.3
		c0.3,0.2,0.4,0.5,0.4,0.9l-0.3,4.8c-0.1,1.7-0.6,3-1.3,4c-0.8,1-2.5,1.5-4.9,1.5h-18.9c-3.1,0-5.2-0.6-6.6-1.8
		c-1.3-1.2-2-2.9-2-5.2c0-1.1,0.1-3,0.2-5.6c0.2-2.7,0.4-5.7,0.7-9.1c0.3-3.4,0.5-7,0.8-10.7c0.3-3.8,0.6-7.3,0.8-10.7
		c0.2-2,0.3-3.7,0.4-5.4c-0.5-4.6-2.2-6.6-3.9-6.7c-2-0.2-1.6-3.1-1.6-3.1h6.9h0.4h28.9c0.3,0,0.6,0.1,0.9,0.2
		c0.3,0.2,0.4,0.5,0.4,0.9L246.7,252.4z"/>
	<path class="st1" d="M337,260.4c-0.1,2.8-0.3,6-0.6,9.5c-0.3,3.5-0.5,7.2-0.8,11c-0.2,3.8-0.5,7.3-0.7,10.5c-0.2,3.2-0.4,6-0.6,8.2
		c-0.2,2.3-0.3,3.6-0.3,4c-0.1,0.4-0.2,0.8-0.4,0.9c-0.2,0.2-0.5,0.3-0.9,0.3h-4.5c-3.1,0-5.3-0.6-6.6-1.9c-1.2-1.2-1.9-2.8-1.9-4.8
		c0-0.6,0.1-1.7,0.2-3.3c0.2-1.6,0.4-3.5,0.6-5.6c0.2-2.1,0.5-4.5,0.7-7c0.3-2.5,0.5-5.1,0.8-7.6c0.2-2.5,0.4-5,0.6-7.4
		c0.2-2.4,0.3-4.5,0.5-6.3c-0.5,1.3-1,3-1.7,5.1c-0.7,2.1-1.4,4.4-2.3,6.9c-0.8,2.5-1.7,5.2-2.6,8c-0.8,2.8-1.7,5.6-2.6,8.2
		c-0.9,2.7-1.8,5.2-2.7,7.7c-0.9,2.4-1.7,4.5-2.4,6.4c-0.2,0.4-0.7,0.8-1.3,1c-0.7,0.3-1.8,0.4-3.3,0.4c-0.9,0-1.9-0.1-2.9-0.2
		c-1-0.1-1.9-0.4-2.8-0.7c-0.8-0.3-1.6-0.8-2.2-1.3c-0.7-0.6-1.1-1.2-1.4-2.1c-0.8-2.8-1.6-5.9-2.3-9.3c-0.8-3.4-1.5-6.9-2.2-10.5
		c-0.7-3.5-1.4-7.1-2.1-10.5c-0.7-3.4-1.4-6.5-2.1-9.3c0,0.8-0.1,2.1-0.1,4c0,1.9-0.1,4-0.2,6.5c-0.1,2.4-0.1,5.1-0.2,7.9
		c-0.1,2.8-0.2,5.6-0.2,8.3c0,2.7-0.1,5.2-0.1,7.5c-0.1,2.3-0.1,4.2-0.1,5.7c0,1.7-0.1,2.7-0.3,3.1c-0.2,0.5-0.6,0.7-1,0.7h-4.5
		c-3.1,0-5.3-0.6-6.6-1.9c-1.3-1.2-1.9-3.1-1.9-5.5c0-0.7,0-1.8,0.1-3.3c0.1-1.6,0.2-3.4,0.4-5.6c0.2-2.2,0.4-4.5,0.6-7.1
		c0.2-2.5,0.4-5.1,0.6-7.7c0.3-3.6,0.5-6.5,0.7-8.9c0.1-1.7,0.3-3.3,0.4-4.6c0-0.2,0-0.5,0-0.8c0.3-7-2-9.8-4-10
		c-2-0.2-1.6-3.1-1.6-3.1h7.7h5.8h5.7c2.1,0,3.9,0.3,5.2,1c1.4,0.7,2.5,1.8,3.4,3.2c0.8,1.4,1.6,3.3,2.1,5.6c0.6,2.3,1.1,5,1.5,8.1
		c0.5,3.1,1,6.7,1.6,10.8c0.6,4.1,1.3,8.7,2.2,13.7c0.9-3.4,1.6-6.2,2.2-8.5c0.6-2.3,1.1-4.1,1.5-5.6c0.4-1.5,0.8-2.8,1-3.8
		c0.3-0.9,0.5-1.9,0.7-2.7c0.2-0.8,0.5-1.7,0.7-2.7c0.3-1,0.6-2.2,0.9-3.7c0.4-1.5,0.9-3.3,1.5-5.5c0.6-2.3,1.3-5,2.2-8.4
		c0.1-0.3,0.3-0.7,0.6-0.9c0.3-0.3,0.8-0.5,1.5-0.5h12.8c1.8,0,3.2,0.1,4.2,0.5c1.1,0.4,1.9,0.9,2.5,1.5c0.6,0.6,1,1.4,1.2,2.4
		c0.2,1,0.3,2.1,0.3,3.3C337.2,255.5,337.1,257.6,337,260.4"/>
	<path class="st1" d="M396.5,278.6c-0.3,2.6-0.9,5.1-1.7,7.7c-0.8,2.6-1.9,5.1-3.2,7.5c-1.4,2.4-3.1,4.6-5.3,6.4
		c-2.2,1.8-4.8,3.3-7.8,4.4c-3,1.1-6.6,1.7-10.6,1.7c-4.6,0-8.3-0.7-11.3-2c-3-1.4-5.4-3.3-7.2-5.6c-1.8-2.3-3-5.1-3.8-8.2
		c-0.7-3.2-1.1-6.6-1.1-10.2c0-4.3,0.5-8.5,1.4-12.6c1-4.1,2.6-7.7,5-10.9c2.3-3.2,5.4-5.7,9.3-7.7c3.9-2,8.6-2.9,14.3-2.9
		c4,0,7.4,0.5,10.3,1.6c2.9,1.1,5.2,2.8,7,5c1.8,2.1,3.1,4.8,4,7.8c0.8,3.1,1.2,6.6,1.2,10.6C397,273.7,396.8,276,396.5,278.6"/>
	<path class="st1" d="M450.5,256.4c-0.1,2-0.1,4.2-0.3,6.8c-0.1,2.5-0.3,5.1-0.4,7.8c-0.2,2.7-0.3,5-0.6,7c-0.2,1.7-0.5,3.5-0.8,5.5
		c-0.3,2-0.8,4.1-1.5,6.1c-0.7,2.1-1.6,4-2.7,6c-1.1,1.9-2.7,3.6-4.5,5.1c-1.8,1.5-4,2.7-6.5,3.6c-2.6,0.9-5.6,1.4-9.1,1.4
		c-3.5,0-6.6-0.5-9.1-1.5c-2.6-1-4.6-2.4-6.2-4.2c-1.6-1.8-2.7-3.9-3.4-6.2c-0.7-2.4-1.1-4.8-1.1-7.5c0-1.2,0.1-2.8,0.2-4.9
		c0.1-2,0.3-4.3,0.5-6.7c0.2-2.4,0.4-4.9,0.6-7.5c0.2-2.4,0.4-4.6,0.6-6.8c0-0.2-0.1-0.5,0-0.8c0.3-7-2-9.8-4-10
		c-2-0.2-1.6-3.1-1.6-3.1h8h4.5h1c0,0,0.3,0,0.8,0.1c2.4,0.2,4,0.9,4.9,2.1c1.1,1.4,1.7,3.5,1.7,6.3c0,0.2,0,0.9-0.1,2.2
		c-0.1,1.3-0.2,2.8-0.3,4.7c-0.2,1.9-0.3,3.9-0.4,6.1c-0.2,2.2-0.3,4.3-0.4,6.2c-0.1,2-0.2,3.7-0.3,5.2c-0.1,1.5-0.1,2.5-0.1,2.9
		c0,0.9,0,2,0.1,3.2c0.1,1.2,0.3,2.4,0.7,3.5c0.4,1.1,0.9,2,1.7,2.8c0.8,0.7,1.9,1.1,3.4,1.1c1.9,0,3.4-0.6,4.6-1.9
		c1.2-1.2,2-2.8,2.7-4.5c0.7-1.8,1.1-3.5,1.3-5.3c0.3-1.8,0.4-3.3,0.5-4.4c0.2-2.8,0.5-5.6,0.7-8.6c0.3-2.9,0.5-5.8,0.7-8.3
		c0.2-2.6,0.3-4.8,0.5-6.8c0.1-1.9,0.2-3.2,0.2-3.9c0-1.1,0.1-1.8,0.2-2.1c0.2-0.3,0.5-0.5,1.1-0.5h4.5c1.9,0,3.3,0.1,4.4,0.5
		c1,0.3,1.8,0.8,2.4,1.3c0.6,0.6,0.9,1.2,1,1.9c0.2,0.7,0.2,1.4,0.2,2.2C450.6,253.1,450.5,254.4,450.5,256.4"/>
	<path class="st1" d="M506.1,260.7c-0.2,2.8-0.4,6-0.6,9.5c-0.2,3.5-0.4,7.2-0.7,10.9c-0.3,3.7-0.5,7.2-0.8,10.4
		c-0.2,3.2-0.5,5.9-0.6,8.1c-0.2,2.2-0.3,3.5-0.4,3.9c0,0.5-0.2,0.8-0.5,1c-0.3,0.2-0.7,0.4-1,0.4h-6.8c-2.2,0-3.9-0.4-5-1
		c-1.1-0.7-1.9-1.5-2.4-2.5c-2.8-5.9-5.5-11.5-8-16.9c-2.5-5.4-5-10.8-7.6-16.3c0.1,5.9,0.1,11.8,0.2,17.7
		c0.1,5.9,0.2,11.7,0.3,17.7c0,0.8-0.4,1.2-1.3,1.2h-4.5c-3.1,0-5.3-0.6-6.6-1.9c-1.3-1.2-2-3.1-2-5.5c0-0.7,0-1.8,0.2-3.3
		c0.1-1.5,0.2-3.4,0.3-5.6c0.2-2.2,0.4-4.5,0.6-7c0.1-2.5,0.4-5.1,0.6-7.7c0.3-4.2,0.6-7.6,0.8-10.4c0.1-1.3,0.2-2.5,0.3-3.7v-0.2
		c0.2-7-2-9.8-4-10c-2-0.2-1.6-3.1-1.6-3.1h7.6h5.9h0.7c1.8,0,3.3,0.2,4.4,0.6c1.1,0.4,2.1,1,2.8,1.7c0.8,0.7,1.3,1.5,1.8,2.4
		c0.5,0.9,0.8,1.9,1.2,2.9c1.3,3.4,2.5,6.3,3.5,8.8c1,2.5,1.9,4.6,2.7,6.5c0.7,1.9,1.4,3.5,2,4.8c0.5,1.4,1.1,2.7,1.6,3.8
		c0.5,1.1,0.9,2.3,1.4,3.3c0.5,1.1,1,2.3,1.6,3.5c0-3.2,0-6.5,0-10c0-3.4,0-6.8-0.1-10c0-3.3-0.1-6.4-0.1-9.4v-8.2
		c0-0.5,0.5-0.7,1.4-0.7h4.5c1.8,0,3.2,0.2,4.3,0.6c1,0.4,1.9,0.9,2.5,1.5c0.6,0.7,1,1.5,1.2,2.5c0.2,1,0.3,2.2,0.3,3.4
		C506.4,255.8,506.3,257.9,506.1,260.7"/>
	<path class="st1" d="M556.2,252.4c-0.1,1.6-0.6,3-1.3,4c-0.9,1-2.5,1.5-4.9,1.5h-8.9l-3.1,45.6c-0.1,0.8-0.4,1.2-0.9,1.2h-4.5
		c-3,0-5.3-0.6-6.6-1.8c-1.3-1.2-2-2.9-2-5.2c0-0.8,0-2,0.1-3.7c0.1-1.6,0.2-3.6,0.4-5.8c0.2-2.2,0.3-4.6,0.5-7.2
		c0.2-2.6,0.4-5.2,0.6-7.9c0.2-2.6,0.4-5.3,0.6-7.9c0.2-2.6,0.4-5.1,0.6-7.3h-13.2c-0.6,0-0.9-0.4-0.9-1.2l0.2-4.6
		c0.1-0.7,0.2-1.4,0.4-2.1c0.2-0.7,0.5-1.3,0.9-1.9c0.4-0.5,1-0.9,1.7-1.3c0.7-0.3,1.6-0.5,2.6-0.5h36.7c0.3,0,0.6,0.1,0.9,0.2
		c0.3,0.2,0.4,0.5,0.4,0.9L556.2,252.4z"/>
	<path class="st1" d="M568,263.4c-4.7,0-8.5-3.8-8.5-8.5c0-4.7,3.8-8.5,8.5-8.5c4.7,0,8.5,3.8,8.5,8.5
		C576.5,259.6,572.7,263.4,568,263.4"/>
	<path class="st0" d="M93.9,257.8c-0.6,0-1.3,0-2,0.1c-0.7,0.1-1.5,0.2-2.3,0.3c-0.1,1.4-0.2,3.1-0.3,5c-0.1,1.9-0.2,4-0.4,6.2
		c1.8,0.5,3.3,0.7,4.7,0.7c1.7,0,2.9-0.2,3.9-0.6c0.9-0.4,1.8-0.9,2.3-1.5c0.6-0.6,1-1.3,1.2-2c0.2-0.7,0.3-1.4,0.3-2.1
		c0-1.7-0.5-3.1-1.7-4.4C98.5,258.4,96.6,257.8,93.9,257.8"/>
	<path class="st0" d="M569.1,251.8h-2.4v2.3h0h2.3c0.7,0,1.2-0.5,1.2-1.1C570.2,252.3,569.7,251.8,569.1,251.8"/>
	<path class="st0" d="M372.8,259.1c-1.9,0-3.6,0.4-5,1c-1.4,0.7-2.6,1.6-3.5,2.8c-1,1.1-1.7,2.4-2.3,3.8c-0.6,1.4-1.1,2.9-1.4,4.4
		c-0.4,1.6-0.6,3-0.7,4.4c-0.1,1.4-0.2,2.6-0.2,3.7c0,5,0.9,8.6,2.5,10.9c1.7,2.3,4,3.4,7.1,3.4c2.5,0,4.5-0.8,6.1-2.4
		c1.6-1.6,2.9-3.6,3.7-5.8c0.9-2.3,1.5-4.7,1.8-7.1c0.3-2.4,0.5-4.5,0.5-6.2c0-4-0.7-7.2-2.1-9.5C378.2,260.3,376,259.1,372.8,259.1
		"/>
	<path class="st0" d="M568,247.5c-4,0-7.3,3.3-7.3,7.4c0,4.1,3.3,7.3,7.3,7.3c4.1,0,7.3-3.3,7.3-7.3
		C575.4,250.9,572.1,247.5,568,247.5 M570.4,259.1L570.4,259.1l-1.6-3.6c-0.1-0.2-0.2-0.2-0.2-0.2c0,0,0,0,0,0h-1.8c0,0-0.1,0-0.1,0
		v3.9h-1.1v-8.4h3.5c1.2,0,2.2,1,2.2,2.3c0,0.9-0.5,1.8-1.4,2.1l1.8,4H570.4z"/>
	<path class="st0" d="M93,280.8c-0.6,0-1.3,0-2.2,0.1c-0.8,0.1-1.8,0.2-2.7,0.4l-0.9,13.5c1.9,0.6,3.7,0.8,5.3,0.8
		c1.7,0,3.1-0.3,4.1-0.7c1-0.5,1.9-1.1,2.4-1.9c0.6-0.7,0.9-1.5,1.1-2.4c0.2-0.9,0.3-1.8,0.3-2.5c0-2-0.6-3.7-1.7-5.1
		C97.7,281.5,95.8,280.8,93,280.8"/>
	<path class="st0" d="M16.1,517.5c6.8,0,11,1.6,11,1.6c0,1.9-0.6,4.1-1.9,5.5c0,0-3.5-1.2-8.1-1.2c-5.3,0-7.8,1.8-7.8,5.3
		c0,3.4,4.7,4.4,9.5,6.1c4.9,1.8,9.8,4.4,9.8,11.4c0,7.6-4.7,11.7-14.1,11.7c-7.5,0-12.2-2.4-12.2-2.4c-0.1-1.9,0.6-4,1.6-5.6
		c0,0,5.2,1.7,10.3,1.7c5.1,0,7.2-1.8,7.2-5.3c0-2.9-2.5-4.3-5.7-5.5c-5.6-2-13.4-3.3-13.4-11.8C2.3,522.1,6.8,517.5,16.1,517.5"/>
	<path class="st0" d="M44.7,528c8,0,10.9,3.3,10.9,10.2v18.6c0,0-0.8,0.4-2.7,0.4c-1.7,0-2.8-0.4-2.8-0.4l-1-2.9
		c-1.3,2.6-4.1,3.9-8,3.9c-5.2,0-8.5-3.1-8.5-9.4c0-6.2,3.9-8.7,10.6-8.7c1.9,0,3.8,0.1,5.4,0.3v-1.2c0-2.7-1-5-4.9-5
		c-3.6,0-7,1.3-7,1.3s-0.9-0.5-1.5-2c-0.7-1.5-0.4-2.9-0.4-2.9S38.9,528,44.7,528 M44.2,544.3c-2.8,0-4.4,1.1-4.4,4.1
		c0,3.1,1.5,4.2,3.9,4.2c3.8,0,5-3.6,5-6.4v-1.6C47.4,544.4,45.8,544.3,44.2,544.3"/>
	<path class="st0" d="M69.5,530.9c1.5-1.9,3.9-2.8,7.4-2.8c6.1,0,10.1,3.8,10.1,14.9c0,11.1-4,14.9-10.1,14.9c-3.5,0-5.8-1-7.4-2.8
		v1.8c0,0-1.2,0.5-3.5,0.5c-2.3,0-3.4-0.5-3.4-0.5v-40c0,0,1.1-0.4,3.4-0.4c2.3,0,3.5,0.4,3.5,0.4V530.9z M74.4,533.6
		c-3.1,0-4.9,2.5-4.9,5.9v6.9c0,3.4,1.9,5.9,4.9,5.9c3.4,0,5.5-1.6,5.5-9.3C79.8,535.3,77.8,533.6,74.4,533.6"/>
	<path class="st0" d="M102.4,528c5.8,0,8,1.6,8,1.6c0,1.7-0.6,3.7-1.7,4.9c0,0-2.6-0.9-5.6-0.9c-3.2,0-4.7,1.1-4.7,3
		c0,2.4,3.5,2.7,6.9,3.9c3.3,1.1,6.5,3.1,6.5,8.2c0,5.8-3.6,9.1-10.7,9.1c-5.9,0-9.4-2.1-9.4-2.1c0-2,0.6-3.9,1.9-5.1
		c0,0,3.5,1.3,7.3,1.3c2.9,0,4.2-1,4.2-3c0-2.4-2.7-2.9-5.6-3.8c-3.6-1.1-7.6-2.6-7.6-8.2C91.9,531.6,95.3,528,102.4,528"/>
	<path class="st0" d="M123.2,545.1c0.5,5.6,2.9,7,6.8,7c3.7,0,6.2-1.3,6.2-1.3c1.1,1.1,2,2.9,2.1,4.9c0,0-3.2,2.2-9.3,2.2
		c-8.9,0-12.8-5.2-12.8-15.1c0-10.3,4.9-14.7,12.4-14.7c6.8,0,11.2,3.5,11.2,11.3c0,3.5-0.6,5.7-0.6,5.7H123.2z M128.6,533.4
		c-2.8,0-4.9,1.9-5.4,6.9h9.6c0.1-0.6,0.1-1.2,0.1-1.8C133,535.7,132,533.4,128.6,533.4"/>
	<path class="st0" d="M165,556.8c0,0-1.1,0.5-3.4,0.5c-2.6,0-3.5-0.5-3.5-0.5V518h14.6c7.4,0,12.2,5,12.2,12.3s-4.8,12.3-12.2,12.3
		H165V556.8z M171.7,536.8c3.8,0,5.8-2.4,5.8-6.5c0-4.1-2-6.5-5.8-6.5H165v13H171.7z"/>
	<path class="st0" d="M190.1,529c0,0,1.2-0.4,3.4-0.4c2.4,0,3.4,0.4,3.4,0.4v19.3c0,2.3,1.2,3.9,4.4,3.9c1.8,0,3.5-0.7,4.8-2V529
		c0,0,1.2-0.4,3.4-0.4c2.4,0,3.4,0.4,3.4,0.4v27.8c0,0-1,0.5-3.4,0.5c-2.2,0-3.4-0.5-3.4-0.5v-1.6c-1.9,1.7-4.5,2.6-7.5,2.6
		c-5.6,0-8.6-3.4-8.6-8.3V529z"/>
	<path class="st0" d="M233.1,528.1c1.6,0,3.1,0.3,4.8,1.4c-0.2,2.5-1.1,4.2-2.9,5.8c-1-0.8-2.1-1.2-3.2-1.2c-1.8,0-3.4,1-4.8,2.8
		v19.9c0,0-1.2,0.4-3.4,0.4c-2.4,0-3.4-0.4-3.4-0.4V529c0,0,1-0.4,3.4-0.4c2.3,0,3.4,0.4,3.4,0.4v3.1
		C228.9,529.5,230.9,528.1,233.1,528.1"/>
	<path class="st0" d="M247,545.1c0.5,5.6,2.9,7,6.8,7c3.7,0,6.2-1.3,6.2-1.3c1.1,1.1,2,2.9,2.1,4.9c0,0-3.2,2.2-9.3,2.2
		c-8.9,0-12.8-5.2-12.8-15.1c0-10.3,4.9-14.7,12.4-14.7c6.8,0,11.2,3.5,11.2,11.3c0,3.5-0.6,5.7-0.6,5.7H247z M252.4,533.4
		c-2.8,0-4.9,1.9-5.4,6.9h9.6c0.1-0.6,0.1-1.2,0.1-1.8C256.8,535.7,255.8,533.4,252.4,533.4"/>
	<path class="st0" d="M275.9,556.9c0,0-1.2,0.4-3.4,0.4c-2.4,0-3.4-0.4-3.4-0.4v-6.3c0,0,1-0.4,3.4-0.4c2.2,0,3.4,0.4,3.4,0.4V556.9
		z"/>
	<path class="st0" d="M307.3,517.5c6.8,0,11,1.6,11,1.6c0,1.9-0.6,4.1-1.9,5.5c0,0-3.5-1.2-8.1-1.2c-5.3,0-7.8,1.8-7.8,5.3
		c0,3.4,4.7,4.4,9.5,6.1c4.9,1.8,9.8,4.4,9.8,11.4c0,7.6-4.7,11.7-14.1,11.7c-7.5,0-12.2-2.4-12.2-2.4c-0.1-1.9,0.6-4,1.6-5.6
		c0,0,5.2,1.7,10.3,1.7c5.1,0,7.2-1.8,7.2-5.3c0-2.9-2.5-4.3-5.7-5.5c-5.6-2-13.4-3.3-13.4-11.8C293.6,522.1,298,517.5,307.3,517.5"
		/>
	<path class="st0" d="M336,528c8,0,10.9,3.3,10.9,10.2v18.6c0,0-0.8,0.4-2.7,0.4c-1.7,0-2.8-0.4-2.8-0.4l-1-2.9
		c-1.3,2.6-4.1,3.9-8,3.9c-5.2,0-8.5-3.1-8.5-9.4c0-6.2,3.9-8.7,10.6-8.7c1.9,0,3.8,0.1,5.4,0.3v-1.2c0-2.7-1-5-4.9-5
		c-3.6,0-7,1.3-7,1.3s-0.9-0.5-1.5-2c-0.7-1.5-0.4-2.9-0.4-2.9S330.2,528,336,528 M335.5,544.3c-2.8,0-4.4,1.1-4.4,4.1
		c0,3.1,1.5,4.2,3.9,4.2c3.8,0,5-3.6,5-6.4v-1.6C338.6,544.4,337.1,544.3,335.5,544.3"/>
	<path class="st0" d="M360.7,530.9c1.5-1.9,3.9-2.8,7.4-2.8c6.1,0,10.1,3.8,10.1,14.9c0,11.1-4,14.9-10.1,14.9c-3.5,0-5.8-1-7.4-2.8
		v1.8c0,0-1.2,0.5-3.5,0.5c-2.3,0-3.4-0.5-3.4-0.5v-40c0,0,1.1-0.4,3.4-0.4c2.3,0,3.5,0.4,3.5,0.4V530.9z M365.6,533.6
		c-3.1,0-4.9,2.5-4.9,5.9v6.9c0,3.4,1.9,5.9,4.9,5.9c3.4,0,5.5-1.6,5.5-9.3C371.1,535.3,369.1,533.6,365.6,533.6"/>
	<path class="st0" d="M393.7,528c5.8,0,8,1.6,8,1.6c0,1.7-0.6,3.7-1.7,4.9c0,0-2.6-0.9-5.6-0.9c-3.2,0-4.7,1.1-4.7,3
		c0,2.4,3.5,2.7,6.9,3.9c3.3,1.1,6.5,3.1,6.5,8.2c0,5.8-3.6,9.1-10.7,9.1c-5.9,0-9.4-2.1-9.4-2.1c0-2,0.6-3.9,1.9-5.1
		c0,0,3.5,1.3,7.3,1.3c2.9,0,4.2-1,4.2-3c0-2.4-2.7-2.9-5.6-3.8c-3.6-1.1-7.6-2.6-7.6-8.2C383.1,531.6,386.5,528,393.7,528"/>
	<path class="st0" d="M414.5,545.1c0.5,5.6,2.9,7,6.8,7c3.7,0,6.2-1.3,6.2-1.3c1.1,1.1,2,2.9,2.1,4.9c0,0-3.2,2.2-9.3,2.2
		c-8.9,0-12.8-5.2-12.8-15.1c0-10.3,4.9-14.7,12.4-14.7c6.8,0,11.2,3.5,11.2,11.3c0,3.5-0.6,5.7-0.6,5.7H414.5z M419.8,533.4
		c-2.8,0-4.9,1.9-5.4,6.9h9.6c0.1-0.6,0.1-1.2,0.1-1.8C424.2,535.7,423.3,533.4,419.8,533.4"/>
	<path class="st0" d="M470.6,518.5c0,0,1.2-0.5,3.5-0.5c2.3,0,3.5,0.5,3.5,0.5v38.3c0,0-1.1,0.5-3.4,0.5c-2.6,0-3.6-0.5-3.6-0.5
		v-16.7h-14.4v16.7c0,0-1.3,0.5-3.5,0.5c-2.5,0-3.5-0.5-3.5-0.5v-38.3c0,0,1.1-0.5,3.4-0.5c2.4,0,3.6,0.5,3.6,0.5v15.7h14.4V518.5z"
		/>
	<path class="st0" d="M491,545.1c0.5,5.6,2.9,7,6.8,7c3.7,0,6.2-1.3,6.2-1.3c1.1,1.1,2,2.9,2.1,4.9c0,0-3.2,2.2-9.3,2.2
		c-8.9,0-12.8-5.2-12.8-15.1c0-10.3,4.9-14.7,12.4-14.7c6.8,0,11.2,3.5,11.2,11.3c0,3.5-0.6,5.7-0.6,5.7H491z M496.4,533.4
		c-2.8,0-4.9,1.9-5.4,6.9h9.6c0.1-0.6,0.1-1.2,0.1-1.8C500.8,535.7,499.9,533.4,496.4,533.4"/>
	<path class="st0" d="M523.6,528c8,0,10.9,3.3,10.9,10.2v18.6c0,0-0.8,0.4-2.7,0.4c-1.7,0-2.8-0.4-2.8-0.4l-1-2.9
		c-1.3,2.6-4.1,3.9-8,3.9c-5.2,0-8.5-3.1-8.5-9.4c0-6.2,3.9-8.7,10.6-8.7c1.9,0,3.8,0.1,5.4,0.3v-1.2c0-2.7-1-5-4.9-5
		c-3.6,0-7,1.3-7,1.3s-0.9-0.5-1.5-2c-0.7-1.5-0.4-2.9-0.4-2.9S517.9,528,523.6,528 M523.1,544.3c-2.8,0-4.4,1.1-4.4,4.1
		c0,3.1,1.5,4.2,3.9,4.2c3.8,0,5-3.6,5-6.4v-1.6C526.3,544.4,524.7,544.3,523.1,544.3"/>
	<path class="st0" d="M548.5,556.9c0,0-1.2,0.4-3.4,0.4c-2.4,0-3.4-0.4-3.4-0.4v-40c0,0,1-0.4,3.4-0.4c2.2,0,3.4,0.4,3.4,0.4V556.9z
		"/>
	<path class="st0" d="M564.6,546.6c0,4.6,1.7,5.7,5.2,5.7c0.9,0,1.9-0.2,1.9-0.2s0.5,1.2,0.5,2.7c0,1.5-0.4,2.4-0.4,2.4
		c-1.3,0.4-2.8,0.5-4.1,0.5c-7,0-10-3.7-10-10.8v-13.3h-4.1c0,0-0.4-1-0.4-2.5c0-1.7,0.4-2.6,0.4-2.6h4.1v-4.7
		c1.8-1.1,4.4-1.6,6.9-1.4v6.1h6.4c0,0,0.4,0.9,0.4,2.5c0,1.5-0.4,2.6-0.4,2.6h-6.4V546.6z"/>
	<path class="st0" d="M599.8,556.9c0,0-1.2,0.4-3.4,0.4c-2.4,0-3.4-0.4-3.4-0.4v-19.3c0-2.3-1.2-3.9-4.4-3.9c-1.8,0-3.5,0.8-4.8,2
		v21.2c0,0-1.2,0.4-3.4,0.4c-2.4,0-3.4-0.4-3.4-0.4v-40c0,0,1-0.4,3.4-0.4c2.2,0,3.4,0.4,3.4,0.4v13.8c1.9-1.7,4.5-2.6,7.5-2.6
		c5.6,0,8.6,3.4,8.6,8.3V556.9z"/>
	<path class="st0" d="M621.3,560.4c-2.1,6.8-4.1,10.5-11,10.5c-1.9,0-3.2-0.6-3.2-0.6s-0.5-1.1-0.5-2.6c0-1.5,0.5-2.7,0.5-2.7
		s1.4,0.2,2.5,0.2c2.7,0,3.8-0.3,5.5-5.8l0.7-2.1c-0.7,0-1.4-0.1-2.1-0.5l-9.8-27.8c0,0,1.3-0.4,3.6-0.4c2.3,0,3.5,0.4,3.5,0.4
		l5.1,14.6c1.4,4.1,1.9,6.9,1.9,6.9h0.2c0,0,0.5-2.7,1.7-6.9l4.4-14.6c0,0,1.1-0.4,3.3-0.4c2,0,3.2,0.4,3.2,0.4L621.3,560.4z"/>
	<path class="st0" d="M640.1,556.9c0,0-1.2,0.4-3.4,0.4c-2.4,0-3.4-0.4-3.4-0.4v-6.3c0,0,1-0.4,3.4-0.4c2.2,0,3.4,0.4,3.4,0.4V556.9
		z"/>
</g>
</svg>
